PathFileType	4	(X/Y/Z)	C:/Users/beibeiliu/ov580/test_trc/User1\sequence.19_training_dense_right.trc
DataRate	CameraRate	NumFrames	NumMarkers	Units	OrigDataRate	OrigDataStartFrame	OrigNumFrames
120	120	17	19	mm	120	28	55
Frame#	Time	ThumbCMC			ThumbMCP			ThumbIP			ThumbTip			IndexMCP			IndexPIP			IndexTip			MiddleMCP			MiddlePIP			MiddleTip			RingMCP			RingPIP			RingTip			PinkyMCP			PinkyPIP			PinkyTip			BackHand1			BackHand2			BackHand3	
		X0	Y0	Z0	X1	Y1	Z1	X2	Y2	Z2	X3	Y3	Z3	X4	Y4	Z4	X5	Y5	Z5	X6	Y6	Z6	X7	Y7	Z7	X8	Y8	Z8	X9	Y9	Z9	X10	Y10	Z10	X11	Y11	Z11	X12	Y12	Z12	X13	Y13	Z13	X14	Y14	Z14	X15	Y15	Z15	X16	Y16	Z16	X17	Y17	Z17	X18	Y18	Z18	
27	0.225	139.012	58.3721	101.891	115.026	63.5803	84.5648	101.362	65.2277	64.5023	86.6398	72.1758	54.8289	116.371	9.76175	31.7232	105.607	-14.0713	53.0554	117.305	7.99268	80.9262	138.106	-12.437	35.6712	114.116	-22.8924	61.4746	125.639	-0.246446	93.0156	151.926	-23.0474	39.2984	128.999	-37.1208	60.9053	133.261	-18.6598	89.0452	184.387	-32.9937	46.3236	180.537	-41.5402	38.2642	192.593	-50.7211	19.2962	193.107	15.609	69.1723	203.115	29.84	96.0251	170.939	47.7109	79.9436	
28	0.233333	163.736	66.5086	98.8446	147.092	86.9329	78.199	138.448	99.8487	60.8679	130.26	114.646	47.0306	111.7	35.8859	31.9377	88.1348	30.0114	50.895	111.153	34.9043	82.4652	117.512	13.2565	36.7815	92.2822	10.0134	63.9146	110.468	25.1277	93.4942	120.292	-10.5611	42.7445	98.2948	-7.41277	65.3079	117.166	8.50344	93.4317	144.896	-33.8115	49.1714	134.201	-38.7608	37.2574	137.629	-50.6959	22.2211	178.31	7.11284	66.5717	196.844	10.3182	94.6982	182.46	40.7765	79.0216	
29	0.241667	190.434	69.7953	96.8023	182.866	88.6368	75.3598	182.741	104.84	54.8219	184.176	120.956	41.6855	132.339	64.5489	26.5185	104.142	69.4378	45.5778	117.802	64.4386	74.8236	119.073	44.1707	30.6666	97.2738	54.2044	52.9796	122.303	53.2598	88.3834	116.102	19.7133	37.712	93.1634	36.2048	54.7572	114.201	41.5368	85.1071	126.234	-9.54443	45.0646	113.678	-15.146	35.436	109.503	-25.2384	15.9594	171.547	2.3155	68.2664	188.923	3.25339	93.031	191.733	34.4388	74.1264	
30	0.25	210.208	65.3479	92.8053	213.257	86.1686	78.1373	224.977	103.977	53.8851	232.332	119.62	44.3157	162.184	76.7406	18.0578	137.436	92.3056	32.2896	143.786	87.8836	64.2925	144.569	55.9139	19.0958	123.612	76.7714	39.2976	137.429	72.7034	73.9626	134.391	39.4819	24.9394	114.043	61.2734	38.8212	126.081	60.2721	73.1436	136.264	9.4238	35.4809	125.71	5.52563	21.9853	120.762	0.752011	0.013919	178.211	11.3871	61.412	189.325	4.00787	95.0486	205.217	32.3751	73.5561	
31	0.258333	221.837	65.276	101.122	233.143	91.3012	85.7671	239.874	106.849	63.9696	251.119	123.862	58.9222	198.189	81.6675	17.6778	164.194	96.4687	25.076	162.242	89.9982	55.9914	172.814	63.2015	11.5501	149.204	81.3685	27.401	158.084	73.6005	66.7031	163.555	42.7515	14.4189	138.234	64.9581	23.7332	144.595	69.886	56.1457	162.154	13.3087	27.4035	156.307	12.9627	6.0046	158.094	8.14601	-13.282	195.251	9.20644	61.8907	200.476	4.50129	93.1359	221.03	32.5055	78.177	
32	0.266667	218.179	79.1888	105.648	219.847	108.622	92.2151	224.931	124.588	73.3088	232.32	146.913	68.6363	206.71	89.8781	20.6721	171.967	98.2788	21.679	165.569	88.8298	53.5986	195.961	67.6655	12.7861	162.842	77.6912	20.769	162.317	71.5715	59.6587	186.434	45.3339	8.70509	157.449	60.7901	16.3515	155.237	59.0701	47.8067	196.972	16.0707	19.0022	196.973	15.3794	0.872207	205.071	20.507	-23.9056	220.366	21.2033	62.7272	220.11	16.4623	94.731	232.158	52.4828	87.3281	
33	0.275	190.802	83.2195	111.181	178.279	107.139	95.0118	173.534	129.969	79.1623	167.112	145.287	75.7705	186.115	100.377	23.8684	159.95	83.4823	18.5369	156.606	66.8983	49.4279	193.25	72.379	12.7943	160.891	60.0961	17.6937	162.185	52.2281	55.9267	203.866	54.603	9.61993	168.992	45.4104	9.67793	165.377	39.1952	42.6369	226.944	30.9097	22.1618	229.423	38.3835	5.76042	238.629	45.9077	-14.2259	234.917	42.5936	68.8393	232.411	35.4307	99.6203	223.636	67.8449	91.3449	
34	0.283333	160.751	70.6573	110.228	137.542	80.0769	94.0666	121.068	92.4113	79.0926	107.989	102.618	69.4827	163.3	81.5909	21.4967	151.116	52.98	13.3137	153.023	38.4661	44.5209	182.741	67.6374	15.5279	163.463	36.2724	14.4778	164.423	27.8924	54.4464	203.262	58.2062	13.4229	180.611	30.9733	7.11096	177.372	20.0225	36.7978	235.231	50.2902	31.4975	236.446	59.4017	12.8842	247.712	74.8193	-7.14392	223.829	65.4962	75.8612	226.971	53.5628	109.016	200.422	77.3298	97.5458	
35	0.291667	143.283	52.8262	105.16	116.658	49.9683	86.013	100.402	53.2205	67.759	83.5781	53.2308	61.2697	148.564	54.2339	16.5902	150.869	25.425	10.9327	152.888	12.9149	48.304	174.368	49.4367	14.492	168.734	13.4697	14.7124	166.773	6.06989	52.2197	198.428	45.2155	12.4873	185.602	14.7308	8.67862	182.727	3.43393	41.1789	228.086	56.182	31.7832	232.134	60.7885	18.8914	237.944	75.993	0.947458	205.677	68.4372	76.1705	209.419	63.4186	107.208	178.22	72.1762	94.4433	
36	0.3	129.783	44.0066	101.755	108.945	33.4448	88.0063	93.7596	31.1916	66.8098	75.667	26.7866	59.2536	143.265	29.7791	18.174	144.908	-1.22291	18.3339	146.089	-4.70185	58.0631	174.26	25.0338	18.5044	165.488	-8.9359	26.156	159.416	-9.30144	65.4486	195.457	22.4699	19.9582	186.338	-8.95205	23.1458	176.77	-10.5621	58.0136	222.022	40.5363	42.2045	228.062	42.3499	24.8255	238.482	53.129	1.88488	197.546	61.4254	77.3106	198.163	63.8139	109.352	164.304	64.0397	89.0907	
37	0.308333	124.496	45.6397	103.24	104.464	34.18	90.0336	87.9526	30.2439	68.6991	65.0204	30.9204	60.6846	140.578	8.82668	26.3694	136.469	-22.4987	39.3213	136.468	-12.0098	73.7794	163.605	-0.484862	27.1731	149.723	-28.8122	45.9887	148.875	-14.9632	84.1454	184.814	-6.25148	31.3522	169.19	-32.0746	47.3996	163.021	-23.6601	74.5719	213.288	13.663	48.2634	220.029	9.33328	30.6173	234.519	12.3378	11.1944	195.586	44.7525	73.8629	194.272	56.7385	109.281	161.904	57.0761	87.5833	
38	0.316667	128.63	55.6935	105.611	103.728	53.4705	92.1969	86.2848	51.7401	68.57	66.4569	59.9449	59.8924	124.917	7.21331	35.0345	110.178	-20.6443	49.8631	112.294	-7.2254	83.1528	141.694	-14.5747	37.6502	123.811	-31.1538	61.5388	129.48	-10.2857	95.6326	160.019	-25.1927	42.5295	139.223	-39.3758	60.2914	141.47	-25.4111	91.6305	196.828	-16.2011	47.9927	199.757	-26.1327	35.3781	207.325	-26.8833	12.5128	186.133	28.6245	71.7423	198.013	41.2666	104.56	161.544	54.7178	86.9161	
39	0.325	141.621	66.2488	102.432	115.668	78.6951	85.382	99.814	85.0594	64.9875	86.6046	92.9637	55.5369	103.825	20.2444	36.8954	83.2575	5.83185	54.9459	97.6219	13.2765	88.6116	113.461	-0.441067	40.2308	94.8191	-11.4466	67.1009	110.024	3.27554	98.9819	128.965	-17.7326	45.0439	104.569	-25.6295	68.0863	116.069	-8.83822	96.727	163.172	-26.9812	50.5889	161.265	-40.521	35.9702	167.444	-47.2204	18.4064	177.916	13.4494	69.2067	192.744	29.6267	100.258	167.07	52.3376	80.9444	
40	0.333333	160.11	70.5539	98.068	143.866	89.0225	80.1049	133.961	106.363	61.0818	128.458	123.44	53.0224	108.624	46.6473	34.2357	78.6528	41.4145	55.0445	93.3199	43.1675	84.5884	106.669	19.0621	37.3944	82.3195	20.916	62.7761	105.161	29.528	98.0782	109.04	2.30424	41.1989	85.1137	3.63617	64.0487	100.558	11.21	93.2253	135.902	-22.2831	48.9534	126.699	-30.5505	34.481	124.929	-38.7465	15.6661	169.707	10.8809	65.2255	187.896	12.6991	95.9753	173.519	47.604	74.9114	
41	0.341667	183.953	71.8465	95.4846	179.225	92.5439	78.6141	178.032	110.031	56.2791	180.002	127.92	45.6842	128.379	64.9314	26.3566	99.2261	73.8475	43.7452	110.847	67.8009	78.186	114.512	43.2521	29.7728	91.2556	55.578	54.6916	110.843	57.1732	87.7179	107.972	23.077	33.0876	85.3981	38.9937	53.2831	99.9685	40.9375	81.3457	122.568	-5.14753	39.7224	110.023	-10.9107	25.9872	108.929	-14.7262	5.08072	164.27	3.59018	65.5269	181.119	3.04359	94.0256	184.565	36.0349	73.1322	
42	0.35	197.999	68.3524	97.5694	195.852	90.764	79.3485	202.13	112.013	62.6968	205.184	126.363	53.8059	150.085	77.641	22.6152	120.97	88.7376	38.0113	128.472	78.7013	72.3443	134.251	54.3402	22.5849	109.673	71.6702	43.9067	123.109	62.4086	81.2622	122.277	36.0496	23.0352	102.666	56.836	40.156	113.175	55.8445	71.3264	129.757	2.35334	33.3475	121.696	3.57668	16.5668	118.87	-1.03974	-4.50011	170.237	8.51919	62.469	182.722	4.41565	94.7851	194.511	36.6684	74.1415	
43	0.358333	190.999	74.1569	108.301	191.421	102.745	90.9301	189.248	119.109	76.7155	190.886	137.379	66.9834	162.062	87.9169	24.8221	130.803	89.4972	32.2568	129.879	79.5694	65.0375	151.474	60.0811	20.6302	119.361	68.6075	36.4781	127.275	63.8428	72.8397	142.045	40.2159	17.0122	114.349	49.9599	30.327	121.007	51.0083	63.242	154.677	8.81296	25.2275	151.525	11.9536	6.87351	153.809	14.9982	-16.9541	186.221	17.638	60.4559	191.721	9.55272	94.3675	201.126	45.3345	80.6327	
